<svg width="601" height="683" viewBox="0 0 601 683" fill="none" xmlns="http://www.w3.org/2000/svg">
<g clip-path="url(#clip0_803_924)">
<path d="M85.6667 595.583V682.25H99C108.067 682.25 113.667 681.583 116.067 680.383C118.067 679.317 131.4 666.517 145.933 651.983C170.467 627.183 172.067 625.183 173 619.583C173.4 616.25 173.667 593.05 173.4 567.983C173 524.383 172.867 522.25 170.2 518.783C168.733 516.783 165.8 513.85 163.8 512.383C160.333 509.717 158.067 509.583 122.867 509.183L85.6667 508.783V595.583Z" fill="#4F46E5"/>
<path d="M0 523.917C0 515.632 6.71573 508.917 15 508.917H86V681.917H15C6.71573 681.917 0 675.201 0 666.917V523.917Z" fill="#818CF8"/>
<path d="M85.6667 381.117V467.783H99C108.067 467.783 113.667 467.117 116.067 465.917C118.067 464.85 131.4 452.05 145.933 437.517C170.467 412.717 172.067 410.717 173 405.117C173.4 401.783 173.667 378.583 173.4 353.517C173 309.917 172.867 307.783 170.2 304.317C168.733 302.317 165.8 299.383 163.8 297.917C160.333 295.25 158.067 295.117 122.867 294.717L85.6667 294.317V381.117Z" fill="#4F46E5"/>
<path d="M0 309.45C0 301.166 6.71573 294.45 15 294.45H86V467.45H15C6.71573 467.45 0 460.734 0 452.45V309.45Z" fill="#818CF8"/>
<path d="M85.6667 166.65V253.317H99C108.067 253.317 113.667 252.65 116.067 251.45C118.067 250.383 131.4 237.583 145.933 223.05C170.467 198.25 172.067 196.25 173 190.65C173.4 187.317 173.667 164.117 173.4 139.05C173 95.45 172.867 93.3166 170.2 89.85C168.733 87.85 165.8 84.9166 163.8 83.45C160.333 80.7833 158.067 80.65 122.867 80.25L85.6667 79.85V166.65Z" fill="#4F46E5"/>
<path d="M0 94.9833C0 86.699 6.71573 79.9833 15 79.9833H86V252.983H15C6.71573 252.983 0 246.268 0 237.983V94.9833Z" fill="#818CF8"/>
<path d="M14 0.449974C5.86667 2.58331 0 10.5833 0 19.5166C0 26.45 2.8 31.7833 8.26667 35.7833L12.6667 38.85H86.2667C158.4 38.85 159.867 38.85 163.467 36.05C170.133 31.1166 172.667 26.45 172.667 19.5166C172.667 12.5833 170.133 7.91664 163.467 2.98331C159.867 0.183307 158.267 0.183307 88.2667 0.0499736C48.9333 -0.0833598 15.4667 0.0499736 14 0.449974Z" fill="#4F46E5"/>
<path d="M299.174 166.65V253.317H312.507C321.574 253.317 327.174 252.65 329.574 251.45C331.574 250.383 344.907 237.583 359.441 223.05C383.974 198.25 385.574 196.25 386.507 190.65C386.907 187.317 387.174 164.117 386.907 139.05C386.507 95.45 386.374 93.3166 383.707 89.85C382.241 87.85 379.307 84.9166 377.307 83.45C373.841 80.7833 371.574 80.65 336.374 80.25L299.174 79.85V166.65Z" fill="#4F46E5"/>
<path d="M213.507 94.9833C213.507 86.699 220.223 79.9833 228.507 79.9833H299.507V252.983H228.507C220.223 252.983 213.507 246.268 213.507 237.983V94.9833Z" fill="#818CF8"/>
<path d="M227.507 0.449974C219.374 2.58331 213.507 10.5833 213.507 19.5166C213.507 26.45 216.307 31.7833 221.774 35.7833L226.174 38.85H299.774C371.907 38.85 373.374 38.85 376.974 36.05C383.641 31.1166 386.174 26.45 386.174 19.5166C386.174 12.5833 383.641 7.91664 376.974 2.98331C373.374 0.183307 371.774 0.183307 301.774 0.0499736C262.441 -0.0833598 228.974 0.0499736 227.507 0.449974Z" fill="#4F46E5"/>
<path d="M512.681 381.117V467.783H526.015C535.081 467.783 540.681 467.117 543.081 465.917C545.081 464.85 558.415 452.05 572.948 437.517C597.481 412.717 599.081 410.717 600.015 405.117C600.415 401.783 600.681 378.583 600.415 353.517C600.015 309.917 599.881 307.783 597.215 304.317C595.748 302.317 592.815 299.383 590.815 297.917C587.348 295.25 585.081 295.117 549.881 294.717L512.681 294.317V381.117Z" fill="#4F46E5"/>
<path d="M427.015 309.45C427.015 301.166 433.73 294.45 442.015 294.45H513.015V467.45H442.015C433.73 467.45 427.015 460.734 427.015 452.45V309.45Z" fill="#818CF8"/>
<path d="M512.681 166.65V253.317H526.015C535.081 253.317 540.681 252.65 543.081 251.45C545.081 250.383 558.415 237.583 572.948 223.05C597.481 198.25 599.081 196.25 600.015 190.65C600.415 187.317 600.681 164.117 600.415 139.05C600.015 95.45 599.881 93.3166 597.215 89.85C595.748 87.85 592.815 84.9166 590.815 83.45C587.348 80.7833 585.081 80.65 549.881 80.25L512.681 79.85V166.65Z" fill="#4F46E5"/>
<path d="M427.015 94.9833C427.015 86.699 433.73 79.9833 442.015 79.9833H513.015V252.983H442.015C433.73 252.983 427.015 246.268 427.015 237.983V94.9833Z" fill="#818CF8"/>
<path d="M441.015 0.449974C432.881 2.58331 427.015 10.5833 427.015 19.5166C427.015 26.45 429.815 31.7833 435.281 35.7833L439.681 38.85H513.281C585.415 38.85 586.881 38.85 590.481 36.05C597.148 31.1166 599.681 26.45 599.681 19.5166C599.681 12.5833 597.148 7.91664 590.481 2.98331C586.881 0.183307 585.281 0.183307 515.281 0.0499736C475.948 -0.0833598 442.481 0.0499736 441.015 0.449974Z" fill="#4F46E5"/>
</g>
<defs>
<clipPath id="clip0_803_924">
<rect width="600.522" height="682.25" fill="white"/>
</clipPath>
</defs>
</svg>
