<svg width="1775" height="363" viewBox="0 0 1775 363" fill="none" xmlns="http://www.w3.org/2000/svg">
<path d="M36.1582 326.07V362.65H41.7859C45.6128 362.65 47.9764 362.369 48.9894 361.862C49.8336 361.412 55.4613 356.009 61.5955 349.875C71.9505 339.407 72.6259 338.563 73.0198 336.2C73.1886 334.793 73.3012 325 73.1886 314.42C73.0198 296.018 72.9635 295.117 71.838 293.654C71.2189 292.81 69.9808 291.572 69.1367 290.953C67.6735 289.827 66.7167 289.771 51.8596 289.602L36.1582 289.433V326.07Z" fill="#4F46E5"/>
<path d="M0 304.49C0 296.205 6.71573 289.49 15 289.49H36.2988V362.509H15C6.71572 362.509 0 355.793 0 347.509V304.49Z" fill="#818CF8"/>
<path d="M36.1582 211.853V248.433H41.7859C45.6128 248.433 47.9764 248.152 48.9894 247.645C49.8336 247.195 55.4613 241.792 61.5955 235.658C71.9505 225.191 72.6259 224.346 73.0198 221.983C73.1886 220.576 73.3012 210.784 73.1886 200.204C73.0198 181.801 72.9635 180.9 71.838 179.437C71.2189 178.593 69.9808 177.355 69.1367 176.736C67.6735 175.61 66.7167 175.554 51.8596 175.385L36.1582 175.216V211.853Z" fill="#4F46E5"/>
<path d="M0 190.273C0 181.988 6.71573 175.273 15 175.273H36.2988V248.292H15C6.71572 248.292 0 241.577 0 233.292V190.273Z" fill="#818CF8"/>
<path d="M36.1582 97.6364V134.217H41.7859C45.6128 134.217 47.9764 133.935 48.9894 133.429C49.8336 132.978 55.4613 127.576 61.5955 121.442C71.9505 110.974 72.6259 110.13 73.0198 107.766C73.1886 106.359 73.3012 96.5671 73.1886 85.987C73.0198 67.5843 72.9635 66.6839 71.838 65.2207C71.2189 64.3765 69.9808 63.1384 69.1367 62.5194C67.6735 61.3938 66.7167 61.3375 51.8596 61.1687L36.1582 60.9999V97.6364Z" fill="#4F46E5"/>
<path d="M0 76.0562C0 67.7719 6.71573 61.0562 15 61.0562H36.2988V134.076H15C6.71572 134.076 0 127.36 0 119.076V76.0562Z" fill="#818CF8"/>
<path d="M5.91892 0.231538C2.48031 1.32978 0 5.44818 0 10.0471C0 13.6164 1.18378 16.362 3.49498 18.4212L5.35521 19.9999H36.4718C66.9683 19.9999 67.5884 19.9999 69.1104 18.5584C71.929 16.0188 73 13.6164 73 10.0471C73 6.47778 71.929 4.07538 69.1104 1.5357C67.5884 0.0942582 66.912 0.0942582 37.3174 0.0256181C20.688 -0.043022 6.539 0.0256181 5.91892 0.231538Z" fill="#4F46E5"/>
<path d="M149.392 97.6366V134.217H155.02C158.847 134.217 161.21 133.935 162.223 133.429C163.067 132.979 168.695 127.576 174.829 121.442C185.184 110.974 185.86 110.13 186.254 107.766C186.423 106.36 186.535 96.5673 186.423 85.9872C186.254 67.5846 186.197 66.6841 185.072 65.2209C184.453 64.3768 183.215 63.1387 182.371 62.5196C180.907 61.3941 179.951 61.3378 165.093 61.169L149.392 61.0001V97.6366Z" fill="#4F46E5"/>
<path d="M113.234 76.0564C113.234 67.7721 119.95 61.0564 128.234 61.0564H149.533V134.076H128.234C119.95 134.076 113.234 127.36 113.234 119.076V76.0564Z" fill="#818CF8"/>
<path d="M119.153 0.231782C115.714 1.33002 113.234 5.44843 113.234 10.0473C113.234 13.6166 114.418 16.3622 116.729 18.4214L118.589 20.0001H149.706C180.202 20.0001 180.822 20.0001 182.344 18.5587C185.163 16.019 186.234 13.6166 186.234 10.0473C186.234 6.47803 185.163 4.07563 182.344 1.53594C180.822 0.0945023 180.146 0.0945023 150.551 0.0258622C133.922 -0.0427778 119.773 0.0258622 119.153 0.231782Z" fill="#4F46E5"/>
<path d="M262.626 211.853V248.433H268.254C272.081 248.433 274.444 248.152 275.457 247.645C276.301 247.195 281.929 241.793 288.063 235.658C298.418 225.191 299.094 224.347 299.488 221.983C299.656 220.576 299.769 210.784 299.656 200.204C299.488 181.801 299.431 180.901 298.306 179.437C297.687 178.593 296.449 177.355 295.604 176.736C294.141 175.611 293.185 175.554 278.327 175.386L262.626 175.217V211.853Z" fill="#4F46E5"/>
<path d="M226.468 190.273C226.468 181.989 233.184 175.273 241.468 175.273H262.767V248.293H241.468C233.183 248.293 226.468 241.577 226.468 233.293V190.273Z" fill="#818CF8"/>
<path d="M262.626 97.6366V134.217H268.254C272.081 134.217 274.444 133.935 275.457 133.429C276.301 132.979 281.929 127.576 288.063 121.442C298.418 110.974 299.094 110.13 299.488 107.766C299.656 106.36 299.769 96.5673 299.656 85.9872C299.488 67.5846 299.431 66.6841 298.306 65.2209C297.687 64.3768 296.449 63.1387 295.604 62.5196C294.141 61.3941 293.185 61.3378 278.327 61.169L262.626 61.0001V97.6366Z" fill="#4F46E5"/>
<path d="M226.468 76.0564C226.468 67.7721 233.184 61.0564 241.468 61.0564H262.767V134.076H241.468C233.183 134.076 226.468 127.36 226.468 119.076V76.0564Z" fill="#818CF8"/>
<path d="M232.387 0.23166C228.948 1.3299 226.468 5.44831 226.468 10.0472C226.468 13.6165 227.652 16.3621 229.963 18.4213L231.823 20H262.94C293.436 20 294.056 20 295.578 18.5586C298.397 16.0189 299.468 13.6165 299.468 10.0472C299.468 6.47791 298.397 4.0755 295.578 1.53582C294.056 0.0943802 293.38 0.0943802 263.785 0.0257402C247.156 -0.0428999 233.007 0.0257402 232.387 0.23166Z" fill="#4F46E5"/>
<path d="M496.717 112.925V251.325H478.517V148.125L432.517 251.325H419.717L373.517 147.925V251.325H355.317V112.925H374.917L426.117 227.325L477.317 112.925H496.717ZM621.982 141.725L555.982 302.925H537.182L558.782 250.125L514.582 141.725H534.782L569.182 230.525L603.182 141.725H621.982ZM736.998 111.925C752.198 111.925 765.331 114.792 776.398 120.525C787.598 126.125 796.131 134.192 801.998 144.725C807.998 155.258 810.998 167.658 810.998 181.925C810.998 196.192 807.998 208.592 801.998 219.125C796.131 229.525 787.598 237.525 776.398 243.125C765.331 248.592 752.198 251.325 736.998 251.325H693.598V111.925H736.998ZM736.998 236.325C754.998 236.325 768.731 231.592 778.198 222.125C787.664 212.525 792.398 199.125 792.398 181.925C792.398 164.592 787.598 151.058 777.998 141.325C768.531 131.592 754.864 126.725 736.998 126.725H711.798V236.325H736.998ZM828.204 196.125C828.204 184.925 830.471 175.125 835.004 166.725C839.537 158.192 845.737 151.592 853.604 146.925C861.604 142.258 870.471 139.925 880.204 139.925C889.804 139.925 898.137 141.992 905.204 146.125C912.271 150.258 917.537 155.458 921.004 161.725V141.725H939.404V251.325H921.004V230.925C917.404 237.325 912.004 242.658 904.804 246.925C897.737 251.058 889.471 253.125 880.004 253.125C870.271 253.125 861.471 250.725 853.604 245.925C845.737 241.125 839.537 234.392 835.004 225.725C830.471 217.058 828.204 207.192 828.204 196.125ZM921.004 196.325C921.004 188.058 919.337 180.858 916.004 174.725C912.671 168.592 908.137 163.925 902.404 160.725C896.804 157.392 890.604 155.725 883.804 155.725C877.004 155.725 870.804 157.325 865.204 160.525C859.604 163.725 855.137 168.392 851.804 174.525C848.471 180.658 846.804 187.858 846.804 196.125C846.804 204.525 848.471 211.858 851.804 218.125C855.137 224.258 859.604 228.992 865.204 232.325C870.804 235.525 877.004 237.125 883.804 237.125C890.604 237.125 896.804 235.525 902.404 232.325C908.137 228.992 912.671 224.258 916.004 218.125C919.337 211.858 921.004 204.592 921.004 196.325ZM979.56 123.925C976.094 123.925 973.16 122.725 970.76 120.325C968.36 117.925 967.16 114.992 967.16 111.525C967.16 108.058 968.36 105.125 970.76 102.725C973.16 100.325 976.094 99.1249 979.56 99.1249C982.894 99.1249 985.694 100.325 987.96 102.725C990.36 105.125 991.56 108.058 991.56 111.525C991.56 114.992 990.36 117.925 987.96 120.325C985.694 122.725 982.894 123.925 979.56 123.925ZM988.36 141.725V251.325H970.16V141.725H988.36ZM1037.58 103.325V251.325H1019.38V103.325H1037.58ZM1163 141.725L1097 302.925H1078.2L1099.8 250.125L1055.6 141.725H1075.8L1110.2 230.525L1144.2 141.725H1163Z" fill="white"/>
<path d="M1320.41 111.925V126.725H1282.41V251.325H1264.21V126.725H1226.01V111.925H1320.41ZM1336.02 196.125C1336.02 184.925 1338.28 175.125 1342.82 166.725C1347.35 158.192 1353.55 151.592 1361.42 146.925C1369.42 142.258 1378.28 139.925 1388.02 139.925C1397.62 139.925 1405.95 141.992 1413.02 146.125C1420.08 150.258 1425.35 155.458 1428.82 161.725V141.725H1447.22V251.325H1428.82V230.925C1425.22 237.325 1419.82 242.658 1412.62 246.925C1405.55 251.058 1397.28 253.125 1387.82 253.125C1378.08 253.125 1369.28 250.725 1361.42 245.925C1353.55 241.125 1347.35 234.392 1342.82 225.725C1338.28 217.058 1336.02 207.192 1336.02 196.125ZM1428.82 196.325C1428.82 188.058 1427.15 180.858 1423.82 174.725C1420.48 168.592 1415.95 163.925 1410.22 160.725C1404.62 157.392 1398.42 155.725 1391.62 155.725C1384.82 155.725 1378.62 157.325 1373.02 160.525C1367.42 163.725 1362.95 168.392 1359.62 174.525C1356.28 180.658 1354.62 187.858 1354.62 196.125C1354.62 204.525 1356.28 211.858 1359.62 218.125C1362.95 224.258 1367.42 228.992 1373.02 232.325C1378.62 235.525 1384.82 237.125 1391.62 237.125C1398.42 237.125 1404.62 235.525 1410.22 232.325C1415.95 228.992 1420.48 224.258 1423.82 218.125C1427.15 211.858 1428.82 204.592 1428.82 196.325ZM1516.77 253.125C1508.37 253.125 1500.84 251.725 1494.17 248.925C1487.51 245.992 1482.24 241.992 1478.37 236.925C1474.51 231.725 1472.37 225.792 1471.97 219.125H1490.77C1491.31 224.592 1493.84 229.058 1498.37 232.525C1503.04 235.992 1509.11 237.725 1516.57 237.725C1523.51 237.725 1528.97 236.192 1532.97 233.125C1536.97 230.058 1538.97 226.192 1538.97 221.525C1538.97 216.725 1536.84 213.192 1532.57 210.925C1528.31 208.525 1521.71 206.192 1512.77 203.925C1504.64 201.792 1497.97 199.658 1492.77 197.525C1487.71 195.258 1483.31 191.992 1479.57 187.725C1475.97 183.325 1474.17 177.592 1474.17 170.525C1474.17 164.925 1475.84 159.792 1479.17 155.125C1482.51 150.458 1487.24 146.792 1493.37 144.125C1499.51 141.325 1506.51 139.925 1514.37 139.925C1526.51 139.925 1536.31 142.992 1543.77 149.125C1551.24 155.258 1555.24 163.658 1555.77 174.325H1537.57C1537.17 168.592 1534.84 163.992 1530.57 160.525C1526.44 157.058 1520.84 155.325 1513.77 155.325C1507.24 155.325 1502.04 156.725 1498.17 159.525C1494.31 162.325 1492.37 165.992 1492.37 170.525C1492.37 174.125 1493.51 177.125 1495.77 179.525C1498.17 181.792 1501.11 183.658 1504.57 185.125C1508.17 186.458 1513.11 187.992 1519.37 189.725C1527.24 191.858 1533.64 193.992 1538.57 196.125C1543.51 198.125 1547.71 201.192 1551.17 205.325C1554.77 209.458 1556.64 214.858 1556.77 221.525C1556.77 227.525 1555.11 232.925 1551.77 237.725C1548.44 242.525 1543.71 246.325 1537.57 249.125C1531.57 251.792 1524.64 253.125 1516.77 253.125ZM1643.66 251.325L1600.66 202.925V251.325H1582.46V103.325H1600.66V190.325L1642.86 141.725H1668.26L1616.66 196.325L1668.46 251.325H1643.66ZM1724.19 253.125C1715.79 253.125 1708.26 251.725 1701.59 248.925C1694.93 245.992 1689.66 241.992 1685.79 236.925C1681.93 231.725 1679.79 225.792 1679.39 219.125H1698.19C1698.73 224.592 1701.26 229.058 1705.79 232.525C1710.46 235.992 1716.53 237.725 1723.99 237.725C1730.93 237.725 1736.39 236.192 1740.39 233.125C1744.39 230.058 1746.39 226.192 1746.39 221.525C1746.39 216.725 1744.26 213.192 1739.99 210.925C1735.73 208.525 1729.13 206.192 1720.19 203.925C1712.06 201.792 1705.39 199.658 1700.19 197.525C1695.13 195.258 1690.73 191.992 1686.99 187.725C1683.39 183.325 1681.59 177.592 1681.59 170.525C1681.59 164.925 1683.26 159.792 1686.59 155.125C1689.93 150.458 1694.66 146.792 1700.79 144.125C1706.93 141.325 1713.93 139.925 1721.79 139.925C1733.93 139.925 1743.73 142.992 1751.19 149.125C1758.66 155.258 1762.66 163.658 1763.19 174.325H1744.99C1744.59 168.592 1742.26 163.992 1737.99 160.525C1733.86 157.058 1728.26 155.325 1721.19 155.325C1714.66 155.325 1709.46 156.725 1705.59 159.525C1701.73 162.325 1699.79 165.992 1699.79 170.525C1699.79 174.125 1700.93 177.125 1703.19 179.525C1705.59 181.792 1708.53 183.658 1711.99 185.125C1715.59 186.458 1720.53 187.992 1726.79 189.725C1734.66 191.858 1741.06 193.992 1745.99 196.125C1750.93 198.125 1755.13 201.192 1758.59 205.325C1762.19 209.458 1764.06 214.858 1764.19 221.525C1764.19 227.525 1762.53 232.925 1759.19 237.725C1755.86 242.525 1751.13 246.325 1744.99 249.125C1738.99 251.792 1732.06 253.125 1724.19 253.125Z" fill="#6366F1"/>
</svg>
