<svg width="77" height="77" viewBox="0 0 77 77" fill="none" xmlns="http://www.w3.org/2000/svg">
<path d="M38.0176 38.5296V77H43.9347C47.9584 77 50.4436 76.7041 51.5086 76.1714C52.3962 75.6979 58.3133 70.0161 64.763 63.565C75.6505 52.5565 76.3606 51.6687 76.7748 49.1829C76.9523 47.7033 77.0707 37.4051 76.9523 26.2782C76.7748 6.92468 76.7156 5.97771 75.5322 4.4389C74.8813 3.55112 73.5796 2.24904 72.692 1.598C71.1535 0.414299 70.1476 0.355114 54.5264 0.177558L38.0176 2.21655e-06V38.5296Z" fill="#4F46E5"/>
<path d="M0 15.0592C0 6.77492 6.71573 0.0592041 15 0.0592041H38.1655V76.8521H15C6.71572 76.8521 0 70.1363 0 61.8521V15.0592Z" fill="#4F46E5"/>
<path d="M24.9436 28.8253H31.4507V41.747H24.9436C24.656 41.747 24.3802 41.6423 24.1768 41.4559C23.9734 41.2695 23.8591 41.0166 23.8591 40.753V29.8193C23.8591 29.5557 23.9734 29.3029 24.1768 29.1164C24.3802 28.93 24.656 28.8253 24.9436 28.8253V28.8253Z" stroke="white" stroke-width="2" stroke-linecap="round" stroke-linejoin="round"/>
<path d="M31.4507 41.747L36.8732 51.6868C38.0237 51.6868 39.1271 51.2679 39.9407 50.5222C40.7542 49.7766 41.2112 48.7653 41.2112 47.7109V44.7289H49.6026C49.9102 44.7296 50.2143 44.67 50.4946 44.554C50.775 44.4381 51.025 44.2685 51.2279 44.0566C51.4307 43.8448 51.5818 43.5956 51.6709 43.3258C51.76 43.056 51.7851 42.7719 51.7445 42.4925L50.1178 30.5648C50.0519 30.0859 49.7983 29.6454 49.4042 29.3254C49.0101 29.0053 48.5024 28.8276 47.9759 28.8253H31.4507" stroke="white" stroke-width="2" stroke-linecap="round" stroke-linejoin="round"/>
</svg>
