<svg width="77" height="77" viewBox="0 0 77 77" fill="none" xmlns="http://www.w3.org/2000/svg">
<path d="M38.0176 38.5296V77H43.9347C47.9584 77 50.4436 76.7041 51.5086 76.1714C52.3962 75.6979 58.3133 70.0161 64.763 63.565C75.6505 52.5565 76.3606 51.6687 76.7748 49.1829C76.9523 47.7033 77.0707 37.4051 76.9523 26.2782C76.7748 6.92468 76.7156 5.97771 75.5322 4.4389C74.8813 3.55112 73.5796 2.24904 72.692 1.598C71.1535 0.414299 70.1476 0.355114 54.5264 0.177558L38.0176 2.21655e-06V38.5296Z" fill="#4F46E5"/>
<path d="M0 15.0592C0 6.77492 6.71573 0.0592041 15 0.0592041H38.1655V76.8521H15C6.71572 76.8521 0 70.1363 0 61.8521V15.0592Z" fill="#4F46E5"/>
<path d="M24.9436 35.7831H31.4507V48.7048H24.9436C24.656 48.7048 24.3802 48.6 24.1768 48.4136C23.9734 48.2272 23.8591 47.9744 23.8591 47.7108V36.7771C23.8591 36.5134 23.9734 36.2606 24.1768 36.0742C24.3802 35.8878 24.656 35.7831 24.9436 35.7831V35.7831Z" stroke="white" stroke-width="2" stroke-linecap="round" stroke-linejoin="round"/>
<path d="M31.4507 35.7831L36.8732 25.8434C38.0237 25.8434 39.1271 26.2623 39.9407 27.0079C40.7542 27.7535 41.2112 28.7648 41.2112 29.8193V32.8012H49.6026C49.9102 32.8005 50.2143 32.8602 50.4946 32.9761C50.775 33.0921 51.025 33.2617 51.2279 33.4735C51.4307 33.6854 51.5818 33.9345 51.6709 34.2043C51.76 34.4741 51.7851 34.7583 51.7445 35.0377L50.1178 46.9654C50.0519 47.4442 49.7983 47.8847 49.4042 48.2048C49.0101 48.5248 48.5024 48.7026 47.9759 48.7048H31.4507" stroke="white" stroke-width="2" stroke-linecap="round" stroke-linejoin="round"/>
</svg>
